# xmcd
#
# Track frame offsets:
# 150
# 18556
# 37343
# 54595
# 67326
# 85661
# 98711
# 115193
# 133591
# 156625
# 168775
# 190049
#
# Disc length: 2819 seconds
#
# Revision: 0
# Processed by: cddbd v1.5.2PL0 Copyright (c) Steve Scherf et al.
# Submitted via: Audion 3.0.2 (http://www.panic.com/audion/)
#
DISCID=a50b010c
DTITLE=Selah Sue - Selah Sue
DYEAR=1900
DGENRE=
TTITLE0=Black Part Love
TTITLE1=Raggamuffin
TTITLE2=Summertime
TTITLE3=This World
TTITLE4=Crazy Surfferin Style
TTITLE5=Crazy Vibes
TTITLE6=Explanations
TTITLE7=Fyah Fyah
TTITLE8=Just Because I Do
TTITLE9=Mommy
TTITLE10=Peace Of Mind
TTITLE11=Please
EXTD=
EXTT0=
EXTT1=
EXTT2=
EXTT3=
EXTT4=
EXTT5=
EXTT6=
EXTT7=
EXTT8=
EXTT9=
EXTT10=
EXTT11=
PLAYORDER=
